<?xml version="1.0" encoding="iso-8859-1"?>
<!-- Generator: Adobe Illustrator 17.1.0, SVG Export Plug-In . SVG Version: 6.00 Build 0)  -->
<!DOCTYPE svg PUBLIC "-//W3C//DTD SVG 1.1//EN" "http://www.w3.org/Graphics/SVG/1.1/DTD/svg11.dtd">
<svg version="1.1" id="Capa_1" xmlns="http://www.w3.org/2000/svg" xmlns:xlink="http://www.w3.org/1999/xlink" x="0px" y="0px"
	 viewBox="0 0 305 305" style="enable-background:new 0 0 305 305;" xml:space="preserve">
<g>
	<path fill="white" d="M287.82,258.988c-0.18-1-0.436-1.437-0.794-2.109L224.96,140.275c1.497-0.665,2.983-1.37,4.451-2.115l0.692-0.355
		c7.387-3.751,10.334-12.781,6.584-20.168c-3.751-7.388-12.78-10.335-20.166-6.585l-0.689,0.35
		c-15.879,8.059-34.357,9.382-51.113,4.015c-2.694-6.153-8.098-11.042-15.116-12.81c-12.04-3.033-24.279,4.272-27.314,16.322
		l-13.663,54.238c-1.989,5.303-1.834,11.054,0.168,16.136c-12.758,17.692-28.063,33.26-45.646,46.398l-15,11.238
		c-3.939,2.943-6.002,7.048-6.006,12.048H8.25c-4.556,0-8.583,3.631-8.583,8.188v2.063c0,4.556,4.027,8.75,8.583,8.75h63.188
		h153.375H288c9.113,0,16.667-7.887,16.667-17v-2H287.82z M135.906,202.948c6.301,3.426,11.54,8.526,15.202,14.956
		c5.378,9.447,6.59,20.367,3.41,30.762l-1.799,5.906c-0.447,1.461-0.656,2.416-0.657,4.416H82.16
		C103.042,242.988,121.08,224.383,135.906,202.948z M182.748,258.988l0.457-1.523c5.62-18.374,3.479-37.705-6.027-54.403
		c-5.806-10.198-13.863-18.527-23.501-24.506l8.25-32.753c7.68,1.891,15.549,2.845,23.42,2.845c7.3,0,14.598-0.792,21.746-2.418
		l60.011,112.759h-25.791H182.748z M71.984,130.475l38.271-99.044c1.375-3.558,5.374-5.328,8.932-3.953s5.328,5.374,3.953,8.932
		l-21.528,55.712h0c7.117,2.75,10.656,10.748,7.907,17.865l-4.686,12.128c6.698,2.588,10.03,10.116,7.442,16.814L98.07,175.691
		c-2.699,6.985-10.608,10.42-17.573,7.582c-6.837-2.786-9.942-10.775-7.281-17.662l9.066-23.462l-6.19-2.392
		C72.395,138.329,70.555,134.173,71.984,130.475z M141.5,70.02c0-15.378,12.466-27.844,27.844-27.844s27.844,12.466,27.844,27.844
		s-12.466,27.844-27.844,27.844S141.5,85.397,141.5,70.02z"/>
</g>
<g>
</g>
<g>
</g>
<g>
</g>
<g>
</g>
<g>
</g>
<g>
</g>
<g>
</g>
<g>
</g>
<g>
</g>
<g>
</g>
<g>
</g>
<g>
</g>
<g>
</g>
<g>
</g>
<g>
</g>
</svg>
