<?xml version="1.0" encoding="iso-8859-1"?>
<!-- Generator: Adobe Illustrator 17.1.0, SVG Export Plug-In . SVG Version: 6.00 Build 0)  -->
<!DOCTYPE svg PUBLIC "-//W3C//DTD SVG 1.1//EN" "http://www.w3.org/Graphics/SVG/1.1/DTD/svg11.dtd">
<svg version="1.1" id="Capa_1" xmlns="http://www.w3.org/2000/svg" xmlns:xlink="http://www.w3.org/1999/xlink" x="0px" y="0px"
	 viewBox="0 0 294.091 294.091" style="enable-background:new 0 0 294.091 294.091;" xml:space="preserve">
<g>
	<path fill="white" d="M174.989,271.976c0,12.214-9.901,22.115-22.115,22.115s-22.115-9.901-22.115-22.115s9.901-22.115,22.115-22.115
		S174.989,259.763,174.989,271.976z M238.094,196c-0.044,0-0.088,0-0.132,0l-19.668-0.01c-18.049,0.13-35.381-8.424-46.323-22.8
		l-5.025-6.646c1.761-3.743,2.518-8.034,1.953-12.441l-6.651-51.904c10.693,4.046,20.269,10.904,27.495,19.806l8.118,9.998
		c2.965,3.652,7.292,5.546,11.655,5.546c3.321,0,6.665-1.099,9.444-3.355c6.433-5.222,7.414-14.668,2.193-21.1l-8.118-10.001
		c-12.988-16.002-31.169-27.502-51.192-32.38l-27.027-6.585c-0.063-0.015-0.126-0.022-0.189-0.036
		c-0.286-0.066-0.574-0.116-0.863-0.165c-0.216-0.037-0.433-0.077-0.649-0.104c-0.231-0.029-0.462-0.043-0.693-0.061
		c-0.271-0.021-0.542-0.045-0.812-0.052c-0.173-0.004-0.346,0.004-0.519,0.006c-0.319,0.003-0.637,0.007-0.953,0.03
		c-0.146,0.011-0.29,0.034-0.436,0.049c-0.333,0.035-0.666,0.07-0.995,0.127c-0.167,0.029-0.331,0.072-0.497,0.106
		c-0.299,0.063-0.599,0.123-0.893,0.203c-0.218,0.059-0.431,0.136-0.646,0.205c-0.237,0.076-0.476,0.147-0.708,0.235
		c-0.249,0.094-0.492,0.206-0.737,0.314c-0.195,0.086-0.393,0.166-0.584,0.26c-0.239,0.118-0.471,0.253-0.704,0.384
		c-0.194,0.109-0.39,0.213-0.579,0.33c-0.2,0.124-0.393,0.263-0.588,0.398c-0.218,0.15-0.437,0.299-0.647,0.46
		c-0.155,0.119-0.304,0.249-0.455,0.375c-0.241,0.2-0.478,0.403-0.706,0.618c-0.043,0.041-0.091,0.075-0.133,0.117l-10.502,10.171
		C96.301,91.685,77.128,98.188,57.73,95.937c-8.227-0.948-15.674,4.943-16.629,13.172c-0.954,8.229,4.942,15.674,13.172,16.629
		c3.693,0.428,7.381,0.64,11.048,0.64c18.821,0,37.064-5.595,52.605-16.018l6.252,48.776l-5.354,3.951
		c-31.452,23.208-52.787,57.139-60.075,95.537l-0.395,2.076c-1.547,8.139,3.798,15.99,11.936,17.537
		c0.946,0.18,1.889,0.267,2.817,0.267c7.062,0,13.353-5.011,14.72-12.202l0.396-2.08c5.873-30.948,23.067-58.292,48.414-76.996
		l5.368-3.961l6.095,8.007c16.491,21.667,42.506,34.543,69.713,34.543c0.246,0,0.492-0.001,0.739-0.004l19.668-0.169
		c8.284-0.07,14.941-6.665,14.87-14.949C253.019,202.452,246.318,196,238.094,196z M113.336,59.699
		c16.485,0,29.85-13.364,29.85-29.85S129.821,0,113.336,0c-16.485,0-29.85,13.364-29.85,29.85S96.85,59.699,113.336,59.699z"/>
</g>
<g>
</g>
<g>
</g>
<g>
</g>
<g>
</g>
<g>
</g>
<g>
</g>
<g>
</g>
<g>
</g>
<g>
</g>
<g>
</g>
<g>
</g>
<g>
</g>
<g>
</g>
<g>
</g>
<g>
</g>
</svg>
