<?xml version="1.0" encoding="iso-8859-1"?>
<!-- Generator: Adobe Illustrator 17.1.0, SVG Export Plug-In . SVG Version: 6.00 Build 0)  -->
<!DOCTYPE svg PUBLIC "-//W3C//DTD SVG 1.1//EN" "http://www.w3.org/Graphics/SVG/1.1/DTD/svg11.dtd">
<svg version="1.1" id="Capa_1" xmlns="http://www.w3.org/2000/svg" xmlns:xlink="http://www.w3.org/1999/xlink" x="0px" y="0px"
	 viewBox="0 0 278.127 278.127" style="enable-background:new 0 0 278.127 278.127;" xml:space="preserve">
<path fill="white" d="M278.127,39.974c0,15.772-12.786,28.558-28.558,28.558c-15.772,0-28.558-12.786-28.558-28.558s12.786-28.558,28.558-28.558
	C265.342,11.417,278.127,24.202,278.127,39.974z M249.777,112.961L89.04,202.547c5.517-10.474,13.378-23.817,23.964-38.362
	c5.116-0.906,9.922-3.656,13.324-8.108c5.86-7.668,24.756-29.93,41.599-40.71c22.024-14.096,35.745-20.463,35.848-20.51
	c10.792-4.927,15.547-17.669,10.619-28.461c-4.926-10.792-17.669-15.544-28.462-10.62c-0.341,0.156-4.785,2.2-12.489,6.382
	L79.969,77.736c-8.172,1.362-13.692,9.09-12.33,17.262c1.223,7.337,7.577,12.536,14.777,12.536c0.819,0,1.65-0.067,2.484-0.206
	l32.226-5.371c-14.145,13.958-24.306,27.209-24.965,28.075c-3.891,5.108-5.12,11.395-3.95,17.231
	c-26.463,36.536-37.32,66.213-37.872,67.749c-1.114,3.099-1.13,6.319-0.273,9.256L4.021,249.931
	c-3.778,2.106-5.134,6.876-3.028,10.654l1.173,2.105c2.106,3.778,6.876,5.134,10.654,3.028l56.326-31.393
	c1.808-0.597,3.493-1.534,4.96-2.764l170.789-95.187c7.557-4.211,10.268-13.751,6.057-21.308L249.777,112.961z"/>
<g>
</g>
<g>
</g>
<g>
</g>
<g>
</g>
<g>
</g>
<g>
</g>
<g>
</g>
<g>
</g>
<g>
</g>
<g>
</g>
<g>
</g>
<g>
</g>
<g>
</g>
<g>
</g>
<g>
</g>
</svg>
